<svg width="57" height="56" viewBox="0 0 57 56" fill="none" xmlns="http://www.w3.org/2000/svg">
<path d="M56.4785 28.0325C56.4785 30.8582 51.944 32.9296 51.1199 35.4791C50.2655 38.1215 52.6924 42.4693 51.0989 44.6689C49.4894 46.8909 44.6128 45.9075 42.4017 47.5237C40.2121 49.1245 39.645 54.0966 37.0147 54.9549C34.4769 55.7822 31.1204 52.1217 28.3076 52.1217C25.4948 52.1217 22.1384 55.7822 19.6005 54.9542C16.9702 54.0966 16.4031 49.1245 14.2135 47.5231C12.0024 45.9062 7.12458 46.8902 5.51631 44.6683C3.92284 42.4687 6.34973 38.1209 5.49535 35.4785C4.67119 32.9296 0.136719 30.8582 0.136719 28.0325C0.136719 25.2068 4.67119 23.1354 5.49535 20.5859C6.34973 17.9435 3.92284 13.5957 5.51631 11.3961C7.12582 9.17421 12.0024 10.1576 14.2135 8.54132C16.4031 6.94054 16.9702 1.9685 19.6005 1.1102C22.1384 0.282873 25.4948 3.94332 28.3076 3.94332C31.1204 3.94332 34.4769 0.282874 37.0147 1.11082C39.645 1.9685 40.2121 6.94054 42.4017 8.54194C44.6128 10.1588 49.4907 9.17483 51.0989 11.3967C52.6924 13.5963 50.2655 17.9442 51.1199 20.5865C51.944 23.1354 56.4785 25.2068 56.4785 28.0325Z" fill="#EDCB50"/>
<path d="M28.6604 14.197L20.5502 29.4637C20.4613 29.6313 20.4171 29.819 20.422 30.0087C20.4268 30.1985 20.4806 30.3837 20.578 30.5465C20.6754 30.7093 20.8131 30.8442 20.9779 30.9381C21.1427 31.032 21.3289 31.0816 21.5185 31.0823H25.7816C25.9261 31.0822 26.0692 31.1106 26.2028 31.1659C26.3363 31.2212 26.4577 31.3023 26.5599 31.4046C26.6621 31.5069 26.7432 31.6283 26.7985 31.7619C26.8538 31.8956 26.8823 32.0388 26.8823 32.1835V41.3549C26.8823 42.489 28.388 42.8831 28.9421 41.8934L37.4094 26.773C37.5031 26.6054 37.5513 26.4163 37.5495 26.2243C37.5476 26.0323 37.4956 25.8441 37.3987 25.6784C37.3018 25.5127 37.1633 25.3753 36.997 25.2796C36.8307 25.184 36.6423 25.1336 36.4504 25.1333L31.8289 25.1283C31.5374 25.1278 31.258 25.0116 31.052 24.8052C30.846 24.5987 30.7302 24.3189 30.73 24.0271V14.7144C30.7319 13.5667 29.1984 13.1844 28.6604 14.197Z" fill="black"/>
</svg>
