<svg width="36" height="34" viewBox="0 0 36 34" fill="none" xmlns="http://www.w3.org/2000/svg">
<path d="M35.3259 16.7264C35.3259 18.4741 32.5214 19.7552 32.0117 21.3321C31.4833 22.9664 32.9843 25.6554 31.9987 27.0159C31.0033 28.3901 27.9872 27.7819 26.6196 28.7815C25.2654 29.7716 24.9146 32.8467 23.2878 33.3776C21.7182 33.8893 19.6422 31.6253 17.9026 31.6253C16.1629 31.6253 14.087 33.8893 12.5173 33.3772C10.8905 32.8467 10.5398 29.7716 9.18554 28.7811C7.81797 27.7811 4.8011 28.3897 3.8064 27.0155C2.82086 25.6551 4.32186 22.966 3.79344 21.3317C3.2837 19.7552 0.479187 18.4741 0.479187 16.7264C0.479187 14.9788 3.2837 13.6976 3.79344 12.1208C4.32186 10.4865 2.82086 7.79744 3.8064 6.43701C4.80186 5.06279 7.81797 5.671 9.18554 4.67136C10.5398 3.68129 10.8905 0.60614 12.5173 0.0752949C14.087 -0.4364 16.1629 1.82754 17.9026 1.82754C19.6422 1.82754 21.7182 -0.436399 23.2878 0.0756783C24.9146 0.60614 25.2654 3.68129 26.6196 4.67174C27.9872 5.67177 31.004 5.06317 31.9987 6.43739C32.9843 7.79783 31.4833 10.4869 32.0117 12.1212C32.5214 13.6976 35.3259 14.9788 35.3259 16.7264Z" fill="#EA7F4A"/>
<path d="M18.1194 8.16793L13.1033 17.6102C13.0483 17.7139 13.021 17.83 13.024 17.9473C13.027 18.0647 13.0602 18.1792 13.1205 18.2799C13.1807 18.3806 13.2659 18.4641 13.3678 18.5221C13.4697 18.5802 13.5849 18.6109 13.7022 18.6113H16.3389C16.4282 18.6113 16.5168 18.6288 16.5994 18.663C16.6819 18.6973 16.757 18.7474 16.8202 18.8107C16.8835 18.8739 16.9336 18.949 16.9678 19.0317C17.002 19.1143 17.0197 19.2029 17.0197 19.2924L17.0197 24.9648C17.0197 25.6662 17.9509 25.91 18.2936 25.2979L23.5305 15.946C23.5885 15.8424 23.6183 15.7254 23.6172 15.6067C23.616 15.4879 23.5838 15.3716 23.5239 15.2691C23.464 15.1666 23.3783 15.0816 23.2755 15.0224C23.1726 14.9633 23.0561 14.9321 22.9374 14.9319L20.0791 14.9288C19.8988 14.9285 19.7259 14.8567 19.5985 14.729C19.4711 14.6013 19.3995 14.4282 19.3994 14.2478V8.48796C19.4005 7.77814 18.4521 7.54166 18.1194 8.16793Z" fill="white"/>
</svg>
